<svg width="100%" viewBox="0 30 680 550" xmlns="http://www.w3.org/2000/svg">
  <polygon points="208,123.8 173,63.2 103,63.2 68,123.8 103,184.4 173,184.4" fill="#0D0D7A" style="fill:rgb(13, 13, 122);stroke:none;color:rgb(255, 255, 255);stroke-width:1px;stroke-linecap:butt;stroke-linejoin:miter;opacity:1;font-family:&quot;Anthropic Sans&quot;, -apple-system, BlinkMacSystemFont, &quot;Segoe UI&quot;, sans-serif;font-size:16px;font-weight:400;text-anchor:start;dominant-baseline:auto"/>
  <polygon points="313,184.4 278,123.8 208,123.8 173,184.4 208,245 278,245" fill="#8B0D0D" style="fill:rgb(139, 13, 13);stroke:none;color:rgb(255, 255, 255);stroke-width:1px;stroke-linecap:butt;stroke-linejoin:miter;opacity:1;font-family:&quot;Anthropic Sans&quot;, -apple-system, BlinkMacSystemFont, &quot;Segoe UI&quot;, sans-serif;font-size:16px;font-weight:400;text-anchor:start;dominant-baseline:auto"/>
  <polygon points="523,184.4 488,123.8 418,123.8 383,184.4 418,245 488,245" fill="#0D0D7A" style="fill:rgb(13, 13, 122);stroke:none;color:rgb(255, 255, 255);stroke-width:1px;stroke-linecap:butt;stroke-linejoin:miter;opacity:1;font-family:&quot;Anthropic Sans&quot;, -apple-system, BlinkMacSystemFont, &quot;Segoe UI&quot;, sans-serif;font-size:16px;font-weight:400;text-anchor:start;dominant-baseline:auto"/>
  <polygon points="628,123.8 593,63.2 523,63.2 488,123.8 523,184.4 593,184.4" fill="#8B0D0D" style="fill:rgb(139, 13, 13);stroke:none;color:rgb(255, 255, 255);stroke-width:1px;stroke-linecap:butt;stroke-linejoin:miter;opacity:1;font-family:&quot;Anthropic Sans&quot;, -apple-system, BlinkMacSystemFont, &quot;Segoe UI&quot;, sans-serif;font-size:16px;font-weight:400;text-anchor:start;dominant-baseline:auto"/>
  <polygon points="418,245 383,184.4 313,184.4 278,245 313,305.6 383,305.6" fill="#0D0D7A" style="fill:rgb(13, 13, 122);stroke:none;color:rgb(255, 255, 255);stroke-width:1px;stroke-linecap:butt;stroke-linejoin:miter;opacity:1;font-family:&quot;Anthropic Sans&quot;, -apple-system, BlinkMacSystemFont, &quot;Segoe UI&quot;, sans-serif;font-size:16px;font-weight:400;text-anchor:start;dominant-baseline:auto"/>
  <polygon points="418,366.2 383,305.6 313,305.6 278,366.2 313,426.8 383,426.8" fill="#8B0D0D" style="fill:rgb(139, 13, 13);stroke:none;color:rgb(255, 255, 255);stroke-width:1px;stroke-linecap:butt;stroke-linejoin:miter;opacity:1;font-family:&quot;Anthropic Sans&quot;, -apple-system, BlinkMacSystemFont, &quot;Segoe UI&quot;, sans-serif;font-size:16px;font-weight:400;text-anchor:start;dominant-baseline:auto"/>
  <polygon points="418,487.4 383,426.8 313,426.8 278,487.4 313,548 383,548" fill="#0D0D7A" style="fill:rgb(13, 13, 122);stroke:none;color:rgb(255, 255, 255);stroke-width:1px;stroke-linecap:butt;stroke-linejoin:miter;opacity:1;font-family:&quot;Anthropic Sans&quot;, -apple-system, BlinkMacSystemFont, &quot;Segoe UI&quot;, sans-serif;font-size:16px;font-weight:400;text-anchor:start;dominant-baseline:auto"/>

  <polygon points="200,113.8 165,53.2 95,53.2 60,113.8 95,174.4 165,174.4" fill="#1B1BB5" stroke="white" stroke-width="4" style="fill:rgb(27, 27, 181);stroke:rgb(255, 255, 255);color:rgb(255, 255, 255);stroke-width:4px;stroke-linecap:butt;stroke-linejoin:miter;opacity:1;font-family:&quot;Anthropic Sans&quot;, -apple-system, BlinkMacSystemFont, &quot;Segoe UI&quot;, sans-serif;font-size:16px;font-weight:400;text-anchor:start;dominant-baseline:auto"/>
  <polygon points="305,174.4 270,113.8 200,113.8 165,174.4 200,235 270,235" fill="#C41818" stroke="white" stroke-width="4" style="fill:rgb(196, 24, 24);stroke:rgb(255, 255, 255);color:rgb(255, 255, 255);stroke-width:4px;stroke-linecap:butt;stroke-linejoin:miter;opacity:1;font-family:&quot;Anthropic Sans&quot;, -apple-system, BlinkMacSystemFont, &quot;Segoe UI&quot;, sans-serif;font-size:16px;font-weight:400;text-anchor:start;dominant-baseline:auto"/>
  <polygon points="515,174.4 480,113.8 410,113.8 375,174.4 410,235 480,235" fill="#1B1BB5" stroke="white" stroke-width="4" style="fill:rgb(27, 27, 181);stroke:rgb(255, 255, 255);color:rgb(255, 255, 255);stroke-width:4px;stroke-linecap:butt;stroke-linejoin:miter;opacity:1;font-family:&quot;Anthropic Sans&quot;, -apple-system, BlinkMacSystemFont, &quot;Segoe UI&quot;, sans-serif;font-size:16px;font-weight:400;text-anchor:start;dominant-baseline:auto"/>
  <polygon points="620,113.8 585,53.2 515,53.2 480,113.8 515,174.4 585,174.4" fill="#C41818" stroke="white" stroke-width="4" style="fill:rgb(196, 24, 24);stroke:rgb(255, 255, 255);color:rgb(255, 255, 255);stroke-width:4px;stroke-linecap:butt;stroke-linejoin:miter;opacity:1;font-family:&quot;Anthropic Sans&quot;, -apple-system, BlinkMacSystemFont, &quot;Segoe UI&quot;, sans-serif;font-size:16px;font-weight:400;text-anchor:start;dominant-baseline:auto"/>
  <polygon points="410,235 375,174.4 305,174.4 270,235 305,295.6 375,295.6" fill="#1B1BB5" stroke="white" stroke-width="4" style="fill:rgb(27, 27, 181);stroke:rgb(255, 255, 255);color:rgb(255, 255, 255);stroke-width:4px;stroke-linecap:butt;stroke-linejoin:miter;opacity:1;font-family:&quot;Anthropic Sans&quot;, -apple-system, BlinkMacSystemFont, &quot;Segoe UI&quot;, sans-serif;font-size:16px;font-weight:400;text-anchor:start;dominant-baseline:auto"/>
  <polygon points="410,356.2 375,295.6 305,295.6 270,356.2 305,416.8 375,416.8" fill="#C41818" stroke="white" stroke-width="4" style="fill:rgb(196, 24, 24);stroke:rgb(255, 255, 255);color:rgb(255, 255, 255);stroke-width:4px;stroke-linecap:butt;stroke-linejoin:miter;opacity:1;font-family:&quot;Anthropic Sans&quot;, -apple-system, BlinkMacSystemFont, &quot;Segoe UI&quot;, sans-serif;font-size:16px;font-weight:400;text-anchor:start;dominant-baseline:auto"/>
  <polygon points="410,477.4 375,416.8 305,416.8 270,477.4 305,538 375,538" fill="#1B1BB5" stroke="white" stroke-width="4" style="fill:rgb(27, 27, 181);stroke:rgb(255, 255, 255);color:rgb(255, 255, 255);stroke-width:4px;stroke-linecap:butt;stroke-linejoin:miter;opacity:1;font-family:&quot;Anthropic Sans&quot;, -apple-system, BlinkMacSystemFont, &quot;Segoe UI&quot;, sans-serif;font-size:16px;font-weight:400;text-anchor:start;dominant-baseline:auto"/>
</svg>